<?xml version="1.0" standalone="no"?>
<!DOCTYPE svg PUBLIC "-//W3C//DTD SVG 20010904//EN"
 "http://www.w3.org/TR/2001/REC-SVG-20010904/DTD/svg10.dtd">
<svg version="1.0" xmlns="http://www.w3.org/2000/svg"
 width="356.000000pt" height="356.000000pt" viewBox="0 0 356.000000 356.000000"
 preserveAspectRatio="xMidYMid meet">
<metadata>
Created by potrace 1.14, written by Peter Selinger 2001-2017
</metadata>
<g transform="translate(0.000000,356.000000) scale(0.100000,-0.100000)"
fill="#000000" stroke="none">
<path d="M1405 2951 c-6 -11 -13 -12 -97 -14 -32 0 -58 -5 -58 -11 0 -5 -6 -2
-13 9 -11 14 -16 15 -22 5 -6 -9 -4 -11 5 -5 8 5 11 4 6 -3 -7 -12 -37 -5 -48
12 -5 7 -8 7 -8 -1 0 -7 -11 -13 -24 -13 -13 0 -27 6 -29 13 -4 10 -6 10 -6 0
-1 -7 -14 -13 -29 -13 -15 0 -34 6 -41 13 -11 10 -13 10 -7 0 4 -8 1 -13 -8
-13 -9 0 -16 -6 -16 -12 0 -9 -3 -10 -8 -2 -8 12 -60 12 -79 1 -6 -4 -14 -3
-17 2 -7 11 -25 9 -45 -3 -9 -6 -12 -5 -7 2 4 8 -4 10 -26 7 -18 -2 -34 -9
-36 -15 -3 -7 -10 -4 -19 7 -8 10 -12 13 -9 7 3 -7 -9 -11 -34 -11 -26 0 -37
4 -33 11 4 6 -1 5 -10 -2 -9 -8 -21 -11 -27 -7 -5 3 -10 2 -10 -4 0 -6 -24 -9
-60 -7 -33 2 -63 -1 -66 -6 -3 -5 -13 -3 -22 4 -9 8 -13 8 -9 2 7 -13 -19 -27
-33 -19 -5 3 -14 -4 -20 -15 -6 -12 -17 -19 -25 -17 -9 4 -11 -1 -7 -15 3 -14
1 -19 -5 -15 -7 5 -9 0 -6 -13 3 -11 1 -20 -4 -20 -11 0 -47 -60 -36 -60 4 0
3 -4 -3 -8 -13 -9 -60 -104 -56 -115 1 -4 -5 -10 -13 -13 -8 -4 -15 -15 -15
-25 0 -10 -4 -19 -10 -19 -5 0 -10 -9 -10 -20 0 -11 -7 -23 -15 -26 -8 -4 -13
-10 -10 -14 8 -13 -6 -40 -18 -33 -5 3 -7 1 -3 -5 3 -6 0 -17 -8 -25 -11 -11
-12 -17 -3 -27 8 -9 9 -11 0 -6 -7 4 -18 -12 -29 -44 -10 -27 -20 -47 -24 -45
-3 2 -7 -6 -7 -18 -1 -12 -7 -23 -13 -25 -5 -2 -7 -9 -3 -15 4 -7 0 -8 -12 -3
-14 5 -15 4 -7 -7 7 -8 7 -18 2 -27 -5 -8 -6 -18 -3 -24 4 -5 -1 -7 -12 -2
-15 5 -16 4 -6 -8 8 -10 9 -16 1 -21 -6 -3 -8 -10 -5 -15 3 -5 2 -11 -3 -14
-9 -6 -8 -47 2 -64 4 -7 4 -12 -1 -12 -4 0 -1 -5 7 -10 8 -5 10 -10 3 -10 -16
0 -11 -24 10 -44 9 -10 15 -22 12 -27 -6 -9 9 -14 30 -9 5 1 7 -1 3 -5 -9 -9
16 -35 32 -35 7 0 10 -7 6 -15 -3 -8 -2 -15 3 -15 4 0 21 -11 37 -25 16 -14
35 -25 42 -25 7 0 11 -4 8 -8 -3 -5 4 -14 14 -22 10 -8 16 -18 13 -23 -3 -6
-1 -7 4 -4 13 8 37 -18 29 -31 -3 -6 0 -10 7 -9 32 1 48 -4 42 -13 -3 -5 -1
-10 5 -10 6 0 8 -4 5 -10 -3 -5 0 -10 7 -10 8 0 20 -9 28 -20 8 -11 20 -20 28
-20 7 0 10 -4 7 -10 -3 -5 1 -10 10 -10 8 0 18 -7 21 -15 4 -8 11 -12 17 -8 6
4 8 -2 5 -15 -4 -14 -2 -19 7 -15 16 6 78 -51 67 -62 -4 -5 -1 -5 6 -1 9 6 25
-4 47 -28 18 -20 36 -36 40 -36 4 0 20 -14 36 -31 16 -17 29 -29 29 -26 0 4
11 -4 25 -17 14 -13 25 -28 25 -34 0 -6 6 -9 13 -6 8 3 22 -7 33 -21 10 -14
28 -25 39 -25 17 0 17 -2 5 -10 -13 -8 -12 -10 3 -10 11 0 15 -4 11 -12 -4 -6
-3 -8 4 -4 6 3 18 -4 26 -16 9 -12 16 -19 16 -14 0 5 8 -1 19 -12 10 -12 23
-22 28 -22 5 0 22 -12 36 -27 44 -46 76 -73 86 -73 6 0 15 -9 21 -20 6 -11 16
-20 23 -20 7 0 19 -9 27 -20 8 -11 20 -20 28 -20 7 0 11 -4 8 -8 -3 -5 7 -15
22 -23 15 -8 39 -26 54 -41 14 -16 28 -28 31 -28 4 0 18 -11 33 -25 14 -13 30
-22 35 -20 4 3 10 -4 14 -15 3 -11 12 -20 20 -20 7 0 27 -13 44 -29 17 -16 38
-32 47 -35 9 -3 14 -13 11 -21 -4 -9 -1 -12 7 -9 8 3 25 -6 39 -20 14 -14 28
-22 31 -19 3 4 6 -1 6 -11 0 -9 5 -14 10 -11 6 3 10 1 10 -5 0 -6 4 -9 9 -5 5
3 12 -4 16 -14 3 -11 12 -18 19 -15 7 3 20 -2 29 -10 8 -8 25 -13 38 -11 12 3
28 0 36 -6 8 -8 13 -8 13 -1 0 6 8 9 18 7 9 -1 23 3 31 9 11 8 13 8 7 -2 -4
-6 -3 -12 3 -12 5 0 13 5 16 11 4 5 12 8 18 6 6 -2 23 10 38 26 17 18 32 26
40 22 6 -5 10 -4 7 1 -3 5 3 17 14 27 10 9 18 14 18 11 0 -4 10 4 23 17 29 29
65 59 73 59 3 0 12 7 21 15 8 8 19 13 24 10 5 -4 6 2 2 12 -3 10 -3 15 2 11 4
-4 14 0 21 10 7 9 18 17 26 17 7 1 12 7 10 14 -1 7 2 10 8 6 5 -3 13 1 16 10
4 9 13 14 21 11 8 -3 12 -2 9 2 -3 5 4 16 15 25 10 9 19 14 19 10 0 -3 14 8
30 26 17 17 36 29 42 25 6 -4 8 -3 5 3 -8 13 17 36 27 26 4 -4 9 3 13 15 3 12
9 20 13 17 5 -3 11 -1 15 5 4 6 11 7 17 4 6 -4 8 -2 4 4 -8 13 43 54 58 45 6
-3 8 -3 4 1 -7 8 25 49 36 47 10 -2 46 38 46 50 0 6 9 9 20 6 11 -3 18 0 17 7
-1 6 4 10 11 8 6 -1 11 3 10 10 -2 7 2 12 7 13 14 0 50 38 59 60 5 14 10 15
18 7 9 -9 16 -4 30 19 10 16 23 27 28 24 6 -3 10 -1 10 5 0 6 5 8 10 5 6 -4 9
-3 8 2 -3 11 33 53 47 53 5 1 21 14 35 30 23 28 59 43 44 18 -4 -7 -3 -8 4 -4
6 4 9 13 6 20 -3 7 12 26 33 42 20 16 53 45 72 64 19 19 31 28 26 20 -5 -8 8
2 27 22 20 20 38 34 42 31 3 -4 6 2 6 12 0 10 3 15 7 12 3 -4 13 2 21 14 8 11
20 18 28 15 8 -3 11 0 7 10 -3 7 0 14 7 14 6 0 8 5 4 12 -4 7 -3 8 5 4 6 -4
14 0 17 9 4 9 13 14 21 11 9 -4 11 -2 7 6 -5 7 -2 9 9 5 11 -4 14 -2 10 9 -3
7 0 14 7 14 6 0 8 5 5 10 -3 6 1 10 9 10 9 0 16 5 16 11 0 5 5 7 10 4 6 -3 10
1 10 9 0 9 7 16 15 16 9 0 12 6 9 15 -4 8 -1 15 5 15 6 0 25 14 43 30 17 17
35 30 40 30 5 0 8 8 6 18 -2 9 2 16 7 15 13 -2 13 60 0 69 -7 5 -6 8 0 8 6 0
11 16 11 35 0 19 -3 35 -7 35 -4 0 -6 13 -5 30 2 23 -1 27 -11 18 -10 -8 -12
-7 -8 4 4 9 0 22 -8 29 -7 8 -12 20 -9 27 2 6 -2 12 -9 12 -7 0 -10 3 -6 6 3
3 -3 15 -13 27 -15 16 -17 24 -9 40 8 14 8 18 0 13 -6 -4 -11 -2 -11 4 0 6 -5
8 -12 4 -8 -5 -7 0 2 11 9 11 10 16 3 11 -9 -5 -13 0 -13 13 0 12 -4 21 -10
21 -5 0 -10 12 -10 27 0 14 -3 23 -7 20 -6 -7 -33 38 -33 56 0 5 -8 16 -17 24
-11 9 -12 11 -3 7 10 -5 9 -1 -3 14 -11 11 -16 26 -12 31 3 6 -1 11 -9 11 -15
0 -20 19 -19 58 1 7 -1 11 -4 8 -7 -7 -32 17 -26 27 2 4 0 7 -6 7 -5 0 -8 9
-6 20 2 11 0 18 -6 15 -5 -4 -9 -1 -9 5 0 6 -7 18 -15 27 -8 8 -13 19 -10 24
4 5 1 9 -5 9 -6 0 -8 5 -5 10 3 6 -1 13 -9 16 -9 3 -16 12 -16 19 0 13 -58 42
-74 37 -17 -5 -46 10 -40 21 3 7 -2 3 -10 -7 -9 -11 -16 -15 -16 -9 0 6 -12 9
-27 7 -15 -1 -33 2 -40 8 -9 7 -13 7 -13 -1 0 -7 -5 -9 -10 -6 -6 4 -7 12 -3
18 4 7 0 7 -10 -1 -9 -8 -20 -11 -26 -8 -5 3 -12 0 -14 -6 -4 -10 -6 -10 -6 0
-1 7 -6 10 -12 6 -6 -3 -15 0 -20 7 -6 10 -9 11 -9 2 0 -7 -7 -13 -15 -13 -8
0 -15 6 -15 13 0 8 -4 7 -10 -3 -5 -8 -10 -10 -10 -5 0 15 -40 16 -40 2 0 -8
-3 -8 -8 -2 -4 6 -16 11 -27 11 -11 0 -23 -5 -27 -11 -5 -6 -8 -6 -8 2 0 15
-41 13 -52 -2 -5 -6 -8 -6 -8 2 0 7 -9 10 -21 8 -15 -3 -19 0 -15 10 7 20 -4
19 -20 -2 -9 -12 -13 -14 -14 -5 0 7 -5 10 -10 7 -6 -4 -18 -1 -27 7 -12 9
-15 9 -9 1 5 -9 -1 -13 -21 -13 -16 0 -35 6 -42 13 -10 9 -12 9 -7 0 5 -9 -5
-11 -39 -8 -25 2 -45 -1 -45 -6 0 -6 -5 -7 -12 -3 -7 4 -29 7 -50 7 -21 0 -38
2 -38 6 0 9 -173 7 -187 -2 -7 -5 -13 -5 -13 0 0 4 -13 8 -30 9 -19 1 -27 -3
-23 -10 5 -8 3 -8 -8 -1 -15 12 -119 12 -137 1 -6 -3 -14 -1 -18 5 -5 8 -3 9
6 4 9 -5 11 -4 6 4 -5 8 -12 9 -19 3 -7 -5 -34 -9 -62 -8 -27 1 -58 -2 -67 -6
-10 -5 -20 -3 -24 4 -5 7 -3 8 6 3 9 -5 11 -4 6 4 -5 8 -12 9 -19 3 -7 -5 -34
-9 -62 -8 -27 1 -58 -2 -67 -6 -10 -5 -20 -3 -24 4 -5 7 -3 8 6 3 9 -5 11 -4
6 4 -6 9 -11 9 -22 0 -8 -6 -17 -9 -21 -6 -3 4 -14 2 -24 -3 -12 -7 -20 -6
-25 2 -5 7 -3 8 6 3 9 -5 11 -4 6 3 -9 14 -13 15 -21 3z"/>
</g>
</svg>
